<svg xmlns="http://www.w3.org/2000/svg"  viewBox="0 0 100 100" width="100px" height="100px"><path fill="#c7ede6" d="M87.215,56.71C88.35,54.555,89,52.105,89,49.5c0-6.621-4.159-12.257-10.001-14.478	C78.999,35.015,79,35.008,79,35c0-11.598-9.402-21-21-21c-9.784,0-17.981,6.701-20.313,15.757C36.211,29.272,34.638,29,33,29	c-7.692,0-14.023,5.793-14.89,13.252C12.906,43.353,9,47.969,9,53.5C9,59.851,14.149,65,20.5,65c0.177,0,0.352-0.012,0.526-0.022	C21.022,65.153,21,65.324,21,65.5C21,76.822,30.178,86,41.5,86c6.437,0,12.175-2.972,15.934-7.614C59.612,80.611,62.64,82,66,82	c4.65,0,8.674-2.65,10.666-6.518C77.718,75.817,78.837,76,80,76c6.075,0,11-4.925,11-11C91,61.689,89.53,58.727,87.215,56.71z"/><path fill="#fdfcef" d="M79.875,57.5c0,0,3.64,0,6.125,0s4.5-2.015,4.5-4.5c0-2.333-1.782-4.229-4.055-4.455 C86.467,48.364,86.5,48.187,86.5,48c0-2.485-2.015-4.5-4.5-4.5c-1.438,0-2.703,0.686-3.527,1.736 C78.333,42.6,76.171,40.5,73.5,40.5c-2.761,0-5,2.239-5,5c0,0.446,0.077,0.87,0.187,1.282C68.045,46.005,67.086,45.5,66,45.5 c-1.781,0-3.234,1.335-3.455,3.055C62.364,48.533,62.187,48.5,62,48.5c-2.485,0-4.5,2.015-4.5,4.5s2.015,4.5,4.5,4.5s9.5,0,9.5,0 h5.375V58h3V57.5z"/><path fill="#472b29" d="M73.5,40c-3.033,0-5.5,2.467-5.5,5.5c0,0.016,0,0.031,0,0.047C67.398,45.192,66.71,45,66,45 c-1.831,0-3.411,1.261-3.858,3.005C62.095,48.002,62.048,48,62,48c-2.757,0-5,2.243-5,5s2.243,5,5,5h14.875 c0.276,0,0.5-0.224,0.5-0.5s-0.224-0.5-0.5-0.5H62c-2.206,0-4-1.794-4-4s1.794-4,4-4c0.117,0,0.23,0.017,0.343,0.032l0.141,0.019 c0.021,0.003,0.041,0.004,0.062,0.004c0.246,0,0.462-0.185,0.495-0.437C63.232,47.125,64.504,46,66,46 c0.885,0,1.723,0.401,2.301,1.1c0.098,0.118,0.241,0.182,0.386,0.182c0.078,0,0.156-0.018,0.228-0.056 c0.209-0.107,0.314-0.346,0.254-0.573C69.054,46.218,69,45.852,69,45.5c0-2.481,2.019-4.5,4.5-4.5c2.381,0,4.347,1.872,4.474,4.263 c0.011,0.208,0.15,0.387,0.349,0.45c0.05,0.016,0.101,0.024,0.152,0.024c0.15,0,0.296-0.069,0.392-0.192 C79.638,44.563,80.779,44,82,44c2.206,0,4,1.794,4,4c0,0.117-0.017,0.23-0.032,0.343l-0.019,0.141 c-0.016,0.134,0.022,0.268,0.106,0.373c0.084,0.105,0.207,0.172,0.34,0.185C88.451,49.247,90,50.949,90,53c0,2.206-1.794,4-4,4 h-6.125c-0.276,0-0.5,0.224-0.5,0.5s0.224,0.5,0.5,0.5H86c2.757,0,5-2.243,5-5c0-2.397-1.689-4.413-4.003-4.877 C86.999,48.082,87,48.041,87,48c0-2.757-2.243-5-5-5c-1.176,0-2.293,0.416-3.183,1.164C78.219,41.76,76.055,40,73.5,40L73.5,40z"/><path fill="#472b29" d="M72,47c-1.403,0-2.609,0.999-2.913,2.341C68.72,49.119,68.301,49,67.875,49 c-1.202,0-2.198,0.897-2.353,2.068C65.319,51.022,65.126,51,64.938,51c-1.529,0-2.811,1.2-2.918,2.732 C62.01,53.87,62.114,53.99,62.251,54c0.006,0,0.012,0,0.018,0c0.13,0,0.24-0.101,0.249-0.232c0.089-1.271,1.151-2.268,2.419-2.268 c0.229,0,0.47,0.042,0.738,0.127c0.022,0.007,0.045,0.01,0.067,0.01c0.055,0,0.11-0.02,0.156-0.054 C65.962,51.537,66,51.455,66,51.375c0-1.034,0.841-1.875,1.875-1.875c0.447,0,0.885,0.168,1.231,0.473 c0.047,0.041,0.106,0.063,0.165,0.063c0.032,0,0.063-0.006,0.093-0.019c0.088-0.035,0.148-0.117,0.155-0.212 C69.623,48.512,70.712,47.5,72,47.5c0.208,0,0.425,0.034,0.682,0.107c0.023,0.007,0.047,0.01,0.07,0.01 c0.109,0,0.207-0.073,0.239-0.182c0.038-0.133-0.039-0.271-0.172-0.309C72.517,47.04,72.256,47,72,47L72,47z"/><path fill="#472b29" d="M85.883,48.5c-1.326,0-2.508,0.897-2.874,2.182c-0.038,0.133,0.039,0.271,0.172,0.309 C83.205,50.997,83.228,51,83.25,51c0.109,0,0.209-0.072,0.24-0.182C83.795,49.748,84.779,49,85.883,49 c0.117,0,0.23,0.014,0.342,0.029c0.012,0.002,0.023,0.003,0.035,0.003c0.121,0,0.229-0.092,0.246-0.217 c0.019-0.137-0.077-0.263-0.214-0.281C86.158,48.516,86.022,48.5,85.883,48.5L85.883,48.5z"/><path fill="#fff" d="M15.405,51H5.5C5.224,51,5,50.776,5,50.5S5.224,50,5.5,50h9.905c0.276,0,0.5,0.224,0.5,0.5 S15.682,51,15.405,51z"/><path fill="#fff" d="M18.5,51h-1c-0.276,0-0.5-0.224-0.5-0.5s0.224-0.5,0.5-0.5h1c0.276,0,0.5,0.224,0.5,0.5 S18.777,51,18.5,51z"/><path fill="#fff" d="M23.491,53H14.5c-0.276,0-0.5-0.224-0.5-0.5s0.224-0.5,0.5-0.5h8.991c0.276,0,0.5,0.224,0.5,0.5 S23.767,53,23.491,53z"/><path fill="#fff" d="M12.5,53h-1c-0.276,0-0.5-0.224-0.5-0.5s0.224-0.5,0.5-0.5h1c0.276,0,0.5,0.224,0.5,0.5 S12.777,53,12.5,53z"/><path fill="#fff" d="M9.5,53h-2C7.224,53,7,52.776,7,52.5S7.224,52,7.5,52h2c0.276,0,0.5,0.224,0.5,0.5S9.777,53,9.5,53z"/><path fill="#fff" d="M15.5,55h-2c-0.276,0-0.5-0.224-0.5-0.5s0.224-0.5,0.5-0.5h2c0.276,0,0.5,0.224,0.5,0.5 S15.776,55,15.5,55z"/><path fill="#fff" d="M18.5,46c-0.177,0-0.823,0-1,0c-0.276,0-0.5,0.224-0.5,0.5c0,0.276,0.224,0.5,0.5,0.5 c0.177,0,0.823,0,1,0c0.276,0,0.5-0.224,0.5-0.5C19,46.224,18.776,46,18.5,46z"/><path fill="#fff" d="M18.5,48c-0.177,0-4.823,0-5,0c-0.276,0-0.5,0.224-0.5,0.5c0,0.276,0.224,0.5,0.5,0.5 c0.177,0,4.823,0,5,0c0.276,0,0.5-0.224,0.5-0.5C19,48.224,18.776,48,18.5,48z"/><path fill="#fff" d="M23.5,50c-0.177,0-2.823,0-3,0c-0.276,0-0.5,0.224-0.5,0.5c0,0.276,0.224,0.5,0.5,0.5 c0.177,0,2.823,0,3,0c0.276,0,0.5-0.224,0.5-0.5C24,50.224,23.776,50,23.5,50z"/><g><path fill="#fff" d="M72.5,24h-10c-0.276,0-0.5-0.224-0.5-0.5s0.224-0.5,0.5-0.5h10c0.276,0,0.5,0.224,0.5,0.5 S72.776,24,72.5,24z"/><path fill="#fff" d="M76.5,24h-2c-0.276,0-0.5-0.224-0.5-0.5s0.224-0.5,0.5-0.5h2c0.276,0,0.5,0.224,0.5,0.5 S76.776,24,76.5,24z"/><path fill="#fff" d="M81.5,26h-10c-0.276,0-0.5-0.224-0.5-0.5s0.224-0.5,0.5-0.5h10c0.276,0,0.5,0.224,0.5,0.5 S81.777,26,81.5,26z"/><path fill="#fff" d="M69.5,26h-1c-0.276,0-0.5-0.224-0.5-0.5s0.224-0.5,0.5-0.5h1c0.276,0,0.5,0.224,0.5,0.5 S69.776,26,69.5,26z"/><path fill="#fff" d="M66.375,26H64.5c-0.276,0-0.5-0.224-0.5-0.5s0.224-0.5,0.5-0.5h1.875c0.276,0,0.5,0.224,0.5,0.5 S66.651,26,66.375,26z"/><path fill="#fff" d="M75.5,22h-5c-0.276,0-0.5-0.224-0.5-0.5s0.224-0.5,0.5-0.5h5c0.276,0,0.5,0.224,0.5,0.5 S75.777,22,75.5,22z"/><path fill="#fff" d="M72.5,28h-2c-0.276,0-0.5-0.224-0.5-0.5s0.224-0.5,0.5-0.5h2c0.276,0,0.5,0.224,0.5,0.5 S72.776,28,72.5,28z"/></g><g><path fill="#fbb821" d="M37,71.3c-4.025,0-7.3-3.274-7.3-7.3V36c0-4.025,3.274-7.3,7.3-7.3h28c4.025,0,7.3,3.274,7.3,7.3 v22.949c0,0.347-0.135,0.674-0.381,0.92l-11.05,11.05c-0.246,0.246-0.572,0.381-0.919,0.381H37z"/><path fill="#472b29" d="M65,29.4c3.639,0,6.6,2.961,6.6,6.6v22.949c0,0.16-0.062,0.311-0.176,0.424L60.374,70.424 C60.26,70.538,60.11,70.6,59.949,70.6H37c-3.639,0-6.6-2.961-6.6-6.6V36c0-3.639,2.961-6.6,6.6-6.6H65 M65,28H37 c-4.418,0-8,3.582-8,8v28c0,4.418,3.582,8,8,8h22.949c0.53,0,1.039-0.211,1.414-0.586l11.051-11.051 C72.789,59.988,73,59.48,73,58.949V36C73,31.582,69.418,28,65,28L65,28z"/></g><g><path fill="#fff" d="M51,35.25c-5.417,0-9.75,4.333-9.75,9.75c0,3.792,2.058,7.15,5.417,8.775v8.558h2.167V64.5h4.333 v-2.167h2.167v-8.558c3.358-1.733,5.417-4.983,5.417-8.775C60.75,39.583,56.417,35.25,51,35.25z M48.833,60.167V57.75h4.333v2.417 H48.833z M53.817,51.933l-0.65,0.325v3.575h-4.333v-3.575l-0.65-0.325c-2.925-1.192-4.767-3.9-4.767-7.042 c0-4.225,3.358-7.583,7.583-7.583s7.583,3.358,7.583,7.583C58.583,48.033,56.742,50.742,53.817,51.933z"/><path fill="#472b29" d="M53.167,64.75h-4.333c-0.138,0-0.25-0.112-0.25-0.25v-1.917h-1.917c-0.138,0-0.25-0.112-0.25-0.25 V53.93C43.071,52.246,41,48.839,41,45c0-5.514,4.486-10,10-10s10,4.486,10,10c0,3.789-2.022,7.115-5.417,8.926v8.407 c0,0.138-0.112,0.25-0.25,0.25h-1.917V64.5C53.417,64.638,53.305,64.75,53.167,64.75z M49.083,64.25h3.833v-1.917 c0-0.138,0.112-0.25,0.25-0.25h1.917v-8.309c0-0.094,0.052-0.179,0.135-0.222C58.526,51.846,60.5,48.648,60.5,45 c0-5.238-4.262-9.5-9.5-9.5s-9.5,4.262-9.5,9.5c0,3.699,2.021,6.976,5.275,8.55c0.086,0.042,0.141,0.129,0.141,0.225v8.309h1.917 c0.138,0,0.25,0.112,0.25,0.25V64.25z M53.167,60.417h-4.333c-0.138,0-0.25-0.112-0.25-0.25V57.75c0-0.138,0.112-0.25,0.25-0.25 h4.333c0.138,0,0.25,0.112,0.25,0.25v2.417C53.417,60.305,53.305,60.417,53.167,60.417z M49.083,59.917h3.833V58h-3.833V59.917z M53.167,56.083h-4.333c-0.138,0-0.25-0.112-0.25-0.25v-3.421l-0.512-0.256c-3.019-1.229-4.905-4.016-4.905-7.265 c0-4.393,3.441-7.833,7.833-7.833s7.833,3.441,7.833,7.833c0,3.25-1.886,6.036-4.922,7.273l-0.495,0.248v3.421 C53.417,55.972,53.305,56.083,53.167,56.083z M49.083,55.583h3.833v-3.325c0-0.095,0.054-0.181,0.138-0.224l0.65-0.325 c2.862-1.167,4.628-3.776,4.628-6.818c0-4.112-3.221-7.333-7.333-7.333s-7.333,3.221-7.333,7.333c0,3.042,1.767,5.651,4.611,6.81 l0.668,0.333c0.084,0.042,0.138,0.129,0.138,0.224V55.583z"/></g><g><path fill="#472b29" d="M57.5,69.057H37.443c-1.853,0-3.57-0.925-4.593-2.474c-0.152-0.23-0.089-0.541,0.142-0.692 c0.229-0.153,0.54-0.09,0.692,0.142c0.837,1.268,2.243,2.024,3.759,2.024H57.5c0.276,0,0.5,0.224,0.5,0.5 S57.776,69.057,57.5,69.057z M32.443,55.971c-0.276,0-0.5-0.224-0.5-0.5V36.443c0-3.033,2.467-5.5,5.5-5.5h23.115 c0.276,0,0.5,0.224,0.5,0.5s-0.224,0.5-0.5,0.5H37.443c-2.481,0-4.5,2.019-4.5,4.5v19.028 C32.943,55.748,32.719,55.971,32.443,55.971z M69.557,54.086c-0.276,0-0.5-0.224-0.5-0.5V36.443c0-1.202-0.468-2.332-1.317-3.182 c-0.85-0.85-1.98-1.318-3.182-1.318c-0.276,0-0.5-0.224-0.5-0.5s0.224-0.5,0.5-0.5c1.469,0,2.851,0.572,3.889,1.611 s1.611,2.42,1.61,3.889v17.143C70.057,53.862,69.833,54.086,69.557,54.086z"/></g><g><path fill="#fdf5a9" d="M61.5,60.953c0-0.25,0.203-0.453,0.453-0.453h9.483L61.5,70.436V60.953z"/><path fill="#472b29" d="M70.228,61L62,69.228V61H70.228 M72.643,60h-10.69C61.426,60,61,60.426,61,60.953v10.69L72.643,60 L72.643,60z"/></g><g><path fill="#fdfcef" d="M36.5,73.5c0,0,1.567,0,3.5,0s3.5-1.567,3.5-3.5c0-1.781-1.335-3.234-3.055-3.455 C40.473,66.366,40.5,66.187,40.5,66c0-1.933-1.567-3.5-3.5-3.5c-1.032,0-1.95,0.455-2.59,1.165 c-0.384-1.808-1.987-3.165-3.91-3.165c-2.209,0-4,1.791-4,4c0,0.191,0.03,0.374,0.056,0.558C26.128,64.714,25.592,64.5,25,64.5 c-1.228,0-2.245,0.887-2.455,2.055C22.366,66.527,22.187,66.5,22,66.5c-1.933,0-3.5,1.567-3.5,3.5s1.567,3.5,3.5,3.5s7.5,0,7.5,0 V74h7V73.5z"/><path fill="#472b29" d="M38.25,69C38.112,69,38,68.888,38,68.75c0-1.223,0.995-2.218,2.218-2.218 c0.034,0.009,0.737-0.001,1.244,0.136c0.133,0.036,0.212,0.173,0.176,0.306c-0.036,0.134-0.173,0.213-0.306,0.176 c-0.444-0.12-1.1-0.12-1.113-0.118c-0.948,0-1.719,0.771-1.719,1.718C38.5,68.888,38.388,69,38.25,69z"/><circle cx="31.5" cy="73.5" r=".5" fill="#472b29"/><path fill="#472b29" d="M40,74h-3.5c-0.276,0-0.5-0.224-0.5-0.5s0.224-0.5,0.5-0.5H40c1.654,0,3-1.346,3-3 c0-1.496-1.125-2.768-2.618-2.959c-0.134-0.018-0.255-0.088-0.336-0.196s-0.115-0.244-0.094-0.377C39.975,66.314,40,66.16,40,66 c0-1.654-1.346-3-3-3c-0.85,0-1.638,0.355-2.219,1c-0.125,0.139-0.321,0.198-0.5,0.148c-0.182-0.049-0.321-0.195-0.36-0.379 C33.58,62.165,32.141,61,30.5,61c-1.93,0-3.5,1.57-3.5,3.5c0,0.143,0.021,0.28,0.041,0.418c0.029,0.203-0.063,0.438-0.242,0.54 c-0.179,0.102-0.396,0.118-0.556-0.01C25.878,65.155,25.449,65,25,65c-0.966,0-1.792,0.691-1.963,1.644 c-0.048,0.267-0.296,0.446-0.569,0.405C22.314,67.025,22.16,67,22,67c-1.654,0-3,1.346-3,3s1.346,3,3,3h7.5 c0.276,0,0.5,0.224,0.5,0.5S29.776,74,29.5,74H22c-2.206,0-4-1.794-4-4s1.794-4,4-4c0.059,0,0.116,0.002,0.174,0.006 C22.588,64.82,23.711,64,25,64c0.349,0,0.689,0.061,1.011,0.18C26.176,61.847,28.126,60,30.5,60c1.831,0,3.466,1.127,4.153,2.774 C35.333,62.276,36.155,62,37,62c2.206,0,4,1.794,4,4c0,0.048-0.001,0.095-0.004,0.142C42.739,66.59,44,68.169,44,70 C44,72.206,42.206,74,40,74z"/><path fill="#472b29" d="M34.5,73c-0.159,0-0.841,0-1,0c-0.276,0-0.5,0.224-0.5,0.5c0,0.276,0.224,0.5,0.5,0.5 c0.159,0,0.841,0,1,0c0.276,0,0.5-0.224,0.5-0.5C35,73.224,34.776,73,34.5,73z"/></g></svg>